# xmcd
#
# Track frame offsets: 
#        150
#        4668
#        26055
#        44742
#        48218
#        69529
#        87695
#        107844
#        110675
#        126980
#        130783
#        164536
#        185015
#        198987
#        203671
#        224219
#        227063
#        246549
#        248505
#
# Disc length: 3402 seconds
#
# Revision: 0
# Processed by: cddbd v1.5.2PL0 Copyright (c) Steve Scherf et al.
# Submitted via: ExactAudioCopyFreeDBPlugin 1.0
#
DISCID=240d4813
DTITLE=The Trip - White Hot and Blue
DYEAR=2013
DGENRE=Blues
TTITLE0=The Trip
TTITLE1=Rattlesnake Shake
TTITLE2=Need Some Lovin Today
TTITLE3=Radio Shuffle
TTITLE4=Gloomy Mood
TTITLE5=Sometimes I Love My Way
TTITLE6=Cold Cold Day
TTITLE7=Junk Blues
TTITLE8=Thank You Pretty Mama
TTITLE9=Cold Cold Day (Reprise)
TTITLE10=I Wanna Ta Ta You
TTITLE11=Naked Love
TTITLE12=News For You
TTITLE13=Night Air
TTITLE14=I Got You
TTITLE15=Martin Went Home
TTITLE16=Back To Blue
TTITLE17=Cotton
TTITLE18=The Trip (Reprise)
EXTD=
EXTT0=
EXTT1=
EXTT2=
EXTT3=
EXTT4=
EXTT5=
EXTT6=
EXTT7=
EXTT8=
EXTT9=
EXTT10=
EXTT11=
EXTT12=
EXTT13=
EXTT14=
EXTT15=
EXTT16=
EXTT17=
EXTT18=
PLAYORDER=
